# xmcd
#
# Track frame offsets:
#	150
#	11335
#	31852
#	58564
#	71945
#	89400
#	109895
#	133180
#	150652
#	167632
#	189420
#	201137
#	213872
#	232367
#
# Disc length: 3517 seconds
#
# Revision: 1
# Processed by: cddbd v1.4PL0 Copyright (c) Steve Scherf et al.
# Submitted via: audiograbber 1.81.03
#
DISCID=c30dbb0e
DTITLE=Big Mojo Elem - Mojo Boogie
DYEAR=1994
DGENRE=Blues
TTITLE0=Bullets Flyin
TTITLE1=Big Fat Mama Blues
TTITLE2=Fine Little Mama
TTITLE3=Boll Weevil
TTITLE4=So Sad To Be Lonesome
TTITLE5=All Your Love
TTITLE6=Short Dress Woman
TTITLE7=Down So Long
TTITLE8=Mojo Boogie
TTITLE9=To Much Trouble
TTITLE10=Hoodoo Woman
TTITLE11=It Must Have Been The Devil
TTITLE12=New Years Resolution
TTITLE13=Mojo Man
EXTD=
EXTT0=
EXTT1=
EXTT2=
EXTT3=
EXTT4=
EXTT5=
EXTT6=
EXTT7=
EXTT8=
EXTT9=
EXTT10=
EXTT11=
EXTT12=
EXTT13=
PLAYORDER=
